<?xml version="1.0" encoding="UTF-8"?>
<svg id="Camada_1" data-name="Camada 1" xmlns="http://www.w3.org/2000/svg" version="1.1" xmlns:xlink="http://www.w3.org/1999/xlink" viewBox="0 0 1080 1080">
  <defs>
    <style>
      .cls-1 {
        fill: url(#Gradiente_sem_nome_53);
        opacity: .96;
      }

      .cls-1, .cls-2 {
        stroke-width: 0px;
      }

      .cls-2 {
        fill: #fff;
      }
    </style>
    <linearGradient id="Gradiente_sem_nome_53" data-name="Gradiente sem nome 53" x1="39.97" y1="542.77" x2="1044.03" y2="542.77" gradientUnits="userSpaceOnUse">
      <stop offset=".05" stop-color="#eb9451"/>
      <stop offset=".94" stop-color="#a5396b"/>
      <stop offset="1" stop-color="#a1336d"/>
    </linearGradient>
  </defs>
  <circle class="cls-1" cx="542" cy="542.77" r="502.03"/>
  <path class="cls-2" d="M393.37,495.02c-12.4,13.04-27.08,18.08-44.35,14.09-18.16-4.2-31.95-19.57-33.17-38.15-.9-13.63-.84-27.41-.06-41.05.87-15.26,9.04-26.6,22.17-34.2,2.61-1.51,3.94-3.3,5.16-5.97,19.68-43.06,52.42-71.01,98.72-80.93,67.19-14.4,130.68,18.89,159.42,81.88.82,1.8,2.47,3.54,4.19,4.56,15.26,9.04,22.97,22.48,23.16,40.05.13,12.35.48,24.8-.84,37.03-1.88,17.47-12.17,29.56-28.54,35.43-16.36,5.87-31.57,2.65-44.78-8.93-1.25-1.09-2.41-2.28-3.96-3.76-19.06,27.43-44.74,43.09-78.55,43.06-33.72-.03-59.33-15.49-78.56-43.1ZM539.66,446.01c1.66-31.49-24.62-67.82-67.79-68.21-37.19-.34-67.13,30.33-67.97,67.29-.75,32.88,25.38,68.76,67.81,68.88,43.35.12,69.54-36.64,67.95-67.96ZM390.67,401.31c18.46-30.04,45.08-47.6,81.49-47.54,36.34.06,62.84,17.81,81.34,48.05,3.59-2.42,6.64-4.8,9.98-6.63,3.28-1.79,6.87-3.02,10.33-4.49-16.2-32.75-60.2-66.71-116.03-60.2-40.78,4.75-75.72,32.99-87.21,59.88,6.7,3.65,13.36,7.27,20.09,10.94ZM379.27,450.29s-.02,0-.03,0c0-6.01.28-12.04-.06-18.03-.58-10.25-9.46-18.15-19.8-18.02-10.58.13-19.35,8.41-19.54,18.86-.21,11.36-.2,22.72-.01,34.08.18,10.51,8.88,18.83,19.4,18.94,10.71.11,19.44-7.72,19.99-18.3.31-5.83.05-11.69.05-17.53ZM603.99,450.13c0-5.85.25-11.7-.05-17.53-.55-10.56-9.48-18.59-20-18.34-10.63.25-19.23,8.52-19.39,19.01-.18,11.19-.17,22.38-.01,33.57.15,10.62,8.64,19.06,19.07,19.28,10.98.23,19.8-7.62,20.35-18.45.29-5.83.05-11.69.04-17.53Z"/>
  <path class="cls-2" d="M519.39,754.87c-7.51-13.86-4.71-27.28-1.77-40.72,1.03-4.72,1.97-9.46,2.94-14.19,4.59-22.35,8.98-44.75,13.82-67.04,4.74-21.8,21.15-35.75,43.28-35.89,52.98-.34,105.97-.4,158.94,0,26.78.21,47.13,22.1,44.38,47.37-1.33,12.21-4.43,24.24-6.87,36.32-4.23,20.9-8.5,41.79-12.89,62.65-4.46,21.19-22.1,35.53-43.61,35.54-85.24.02-170.48.01-255.72,0-7.24,0-12.16-3.85-13.33-10.28-.96-5.27,2.49-11.15,7.94-13.02,1.83-.63,3.92-.72,5.89-.73,18.54-.05,37.09-.03,56.98-.03ZM638.27,754.87c25.91,0,51.83.03,77.74-.01,11.51-.02,18.9-5.92,21.51-17.01.88-3.73,1.67-7.48,2.44-11.23,5.4-26.44,10.84-52.88,16.15-79.34,3.09-15.41-5.62-25.91-21.29-25.92-51.83-.01-103.66-.01-155.49,0-11.6,0-19.04,5.71-21.38,17.01-6.26,30.18-11.96,60.49-18.6,90.59-2.92,13.26,6.2,26.34,22.18,26.05,25.57-.47,51.16-.13,76.74-.13Z"/>
  <path class="cls-2" d="M413.79,595.52c-22.93,15.32-45.43,30.3-67.87,45.39-4.81,3.24-7.41,7.97-8.14,13.77-2.54,20.19-5.19,40.36-7.69,60.55-2.55,20.5,14.23,39.04,35.92,39.58,10.36.25,20.72.12,31.09.04,9.94-.08,14.64-6.99,10.93-16.17-7.8-19.31-15.88-38.5-23.44-57.9-1.35-3.47-1.72-7.95-.82-11.54,1.23-4.89,5.63-7.42,10.73-7.51,5.56-.09,9.5,2.78,11.62,7.93,4.75,11.56,9.43,23.15,14.14,34.72,3.45,8.49,7,16.94,10.35,25.47,9.9,25.16-6.34,49.05-33.33,49.08-10.7.01-21.39.03-32.09,0-36.53-.12-64.54-33.69-58.85-69.87,3.01-19.1,4.96-38.37,7.4-57.56,1.73-13.59,8.53-24.07,19.8-31.62,25.24-16.91,50.44-33.89,75.89-50.5,40.57-26.47,92.49-24.67,131.48,4.2,5.31,3.93,7.12,9.44,4.9,14.91-2.15,5.31-7.1,7.96-13.3,7.65-1.31-.07-3.24,1.08-3.97,2.25-3.96,6.37-7.58,12.96-11.41,19.42-21.15,35.63-69.33,35.55-90.45-.15-4.24-7.17-8.39-14.4-12.89-22.11ZM509.33,583.06c-25.4-10.56-49.76-10.74-74.65.04,5.14,8.73,9.52,17.01,14.67,24.77,10.32,15.54,33.28,16.42,44.01,1.51,5.81-8.08,10.39-17.03,15.97-26.32Z"/>
  <path class="cls-2" d="M760.48,431.6c4.7-3.83,8.65-7.64,14.76-6.03,9.31,2.45,12.97,13.47,5.99,20-8.53,7.97-17.72,15.26-26.85,22.56-3.75,3-7.85,2.16-11.47-.84-7.97-6.62-15.98-13.19-23.86-19.92-5.54-4.74-6.74-11.22-3.36-16.48,3.58-5.57,9.75-6.98,16.72-3.82.45.2.91.38,2.08.87-.67-2.67-1.12-4.89-1.78-7.03-13.35-43.05-51.51-70.55-98.4-70.92-6.02-.05-12.05.14-18.05-.16-6.72-.35-11.31-5.19-11.48-11.56-.17-6.46,4.52-12.16,11.21-12.47,26.96-1.23,53.44.56,77.86,13.79,35.65,19.31,57.71,48.66,65.5,88.57.19.96.59,1.87,1.11,3.45Z"/>
  <path class="cls-2" d="M685.03,493.62c.05,6.69-5.29,12.25-11.86,12.34-6.5.1-12.12-5.46-12.19-12.06-.07-6.77,5.14-12.1,11.91-12.17,6.84-.07,12.1,5.08,12.14,11.89Z"/>
  <path class="cls-2" d="M685.03,539.89c-.04,6.66-5.56,12.19-12.09,12.13-6.53-.06-12-5.69-11.97-12.3.03-6.69,5.49-12.1,12.14-12.04,6.71.05,11.96,5.44,11.92,12.21Z"/>
  <path class="cls-2" d="M658.15,722.81c-20.27.06-36.31-15.82-36.32-35.96-.01-20.14,16.06-36.28,36.12-36.27,19.85,0,36.03,16.07,36.09,35.82.07,20.29-15.77,36.35-35.89,36.41ZM657.82,674.81c-6.31.07-11.86,5.64-11.87,11.92-.01,6.44,5.91,12.19,12.33,11.96,6.29-.22,11.78-5.97,11.62-12.17-.17-6.33-5.79-11.78-12.08-11.71Z"/>
</svg>