<?xml version="1.0" encoding="UTF-8"?>
<svg id="Camada_1" data-name="Camada 1" xmlns="http://www.w3.org/2000/svg" version="1.1" xmlns:xlink="http://www.w3.org/1999/xlink" viewBox="0 0 1080 1080">
  <defs>
    <style>
      .cls-1 {
        fill: url(#Gradiente_sem_nome_53);
        opacity: .96;
      }

      .cls-1, .cls-2 {
        stroke-width: 0px;
      }

      .cls-2 {
        fill: #fff;
      }
    </style>
    <linearGradient id="Gradiente_sem_nome_53" data-name="Gradiente sem nome 53" x1="39.97" y1="542.77" x2="1044.03" y2="542.77" gradientUnits="userSpaceOnUse">
      <stop offset=".05" stop-color="#eb9451"/>
      <stop offset=".94" stop-color="#a5396b"/>
      <stop offset="1" stop-color="#a1336d"/>
    </linearGradient>
  </defs>
  <circle class="cls-1" cx="542" cy="542.77" r="502.03"/>
  <path class="cls-2" d="M610.31,307.3c8.43,1.46,17.01,2.37,25.28,4.48,66.13,16.9,110.4,57.87,129.51,123.28,28.19,96.5-32.53,196.21-131.09,218-94.89,20.98-188.91-39.6-209.44-134.94-19.08-88.62,35.16-178.83,122.77-203.72,10.38-2.95,21.24-4.2,31.88-6.27,1.01-.2,1.99-.55,2.98-.84,9.37,0,18.75,0,28.12,0ZM448.46,482.04c-.32,81.13,65.62,147.12,147.45,147.57,81.55.44,148.17-65.49,148.62-147.05.44-80.93-66.25-147.69-147.88-148.01-81.35-.32-147.87,65.89-148.19,147.49Z"/>
  <path class="cls-2" d="M307.3,545.9c8.82-8.66,17.68-17.29,26.46-26,12.33-12.24,24.59-24.54,36.89-36.8,1.15-1.15,2.36-2.24,3.26-3.09,6.49,6.42,12.78,12.65,18.76,18.57-21.89,22.01-44,44.24-66.41,66.78-6.11-5.98-12.54-12.27-18.96-18.56,0-.3,0-.6,0-.91Z"/>
  <path class="cls-2" d="M359.23,738.6c-6.21-6.2-12.48-12.46-18.48-18.44,27.81-28,55.87-56.25,83.49-84.05,6.27,6.2,12.65,12.5,18.58,18.36-27.49,27.67-55.65,56.01-83.58,84.13Z"/>
  <path class="cls-2" d="M442.9,758.35c-6.43-6.36-12.64-12.5-18.51-18.31,24.1-24.22,48.21-48.45,72.07-72.43,6.06,6.04,12.43,12.39,18.36,18.31-23.81,23.97-47.83,48.16-71.92,72.43Z"/>
  <path class="cls-2" d="M393.1,564.38c6.25,6.2,12.55,12.43,18.54,18.38-23.88,24.11-47.87,48.33-71.6,72.28-6.3-6.32-12.63-12.67-18.5-18.56,23.72-23.9,47.73-48.09,71.56-72.1Z"/>
  <path class="cls-2" d="M533.33,771.03c-6.25-6.2-12.54-12.45-18.61-18.46,21.95-22.08,44.09-44.34,65.86-66.24,6.3,6.25,12.71,12.6,18.49,18.33-21.86,22.07-43.95,44.38-65.74,66.37Z"/>
  <path class="cls-2" d="M684.58,468.34v27.31h-101.68v-101.38h27.26v74.07h74.42Z"/>
</svg>