<?xml version="1.0" encoding="UTF-8"?>
<svg id="Camada_1" data-name="Camada 1" xmlns="http://www.w3.org/2000/svg" version="1.1" xmlns:xlink="http://www.w3.org/1999/xlink" viewBox="0 0 1080 1080">
  <defs>
    <style>
      .cls-1 {
        fill: url(#Gradiente_sem_nome_53);
        opacity: .96;
      }

      .cls-1, .cls-2 {
        stroke-width: 0px;
      }

      .cls-2 {
        fill: #fff;
      }
    </style>
    <linearGradient id="Gradiente_sem_nome_53" data-name="Gradiente sem nome 53" x1="38.97" y1="541.39" x2="1043.03" y2="541.39" gradientUnits="userSpaceOnUse">
      <stop offset=".05" stop-color="#eb9451"/>
      <stop offset=".94" stop-color="#a5396b"/>
      <stop offset="1" stop-color="#a1336d"/>
    </linearGradient>
  </defs>
  <circle class="cls-1" cx="541" cy="541.39" r="502.03"/>
  <path class="cls-2" d="M547.01,304.13c8.74,4.39,13.81,12.47,19.28,19.91,15.78,21.5,25.3,45.71,28.31,72.18,1.1,9.69.18,19.62.18,30.01h6.27c34.84,0,69.68-.03,104.52.01,18.7.02,32.72,10.6,37.69,28.63,1.05,3.8,1.45,7.89,1.46,11.85.09,54.57.07,109.14.05,163.71,0,8.09-3.56,12.51-9.83,12.3-4.38-.15-7.27-2.48-8.39-6.6-.63-2.33-.73-4.86-.73-7.31-.04-53.64-.33-107.29.15-160.93.15-16.91-10.9-23.44-23.21-23.3-34.68.39-69.37.14-104.05.14h-6.27c1.62,1.91,2.56,3.11,3.59,4.23,7.96,8.57,16.59,16.63,23.76,25.81,11.19,14.34,16.6,31.11,16.9,49.34.23,14.18,0,28.36.13,42.54.04,4.43-1.28,7.99-5.46,9.77-4.06,1.74-7.75.69-11.03-2.29-13.02-11.79-26.09-23.52-39.18-35.31-9.11,6.99-20.06,7.36-30.59,8.33-13.39,1.23-26.78.14-39.8-3.6-3.01-.87-5.82-2.45-9.55-4.07-3.09,2.74-6.97,6.16-10.82,9.62-9.06,8.14-18.15,16.24-27.11,24.48-3.48,3.2-7.26,4.76-11.74,2.79-4.4-1.93-5.43-5.75-5.38-10.29.14-13.41-.03-26.82.09-40.23.23-25.17,9.9-46.31,27.76-63.82,5.68-5.57,11.57-10.94,18.06-17.06-2.41-.11-3.87-.24-5.32-.24-35.76-.01-71.53.17-107.29-.11-12.8-.1-22.47,7.67-22.42,22.17.29,76.61.13,153.23.14,229.84,0,1.5.13,3,.22,5.01,2.14,0,3.95,0,5.76,0,44.55,0,89.1.11,133.65-.09,9.7-.04,13.53,2.99,14.29,12.03.58,7.03,7.06,12.32,14.42,12.44,10.48.17,20.96.17,31.44.02,8.01-.12,13.93-5.62,15.03-13.54,1.19-8.59,3.67-10.85,12.29-10.85,60.12-.02,120.24-.02,180.36,0,8.84,0,11.78,3.12,11.9,12.01.17,12.19.49,24.4-5.69,35.55-10,18.02-25.18,28.36-45.89,28.39-122.24.22-244.49.14-366.73.08-28.07-.01-51.08-22.8-51.68-50.9-.1-4.78-.12-9.56-.06-14.33.09-7.31,3.36-10.65,10.76-10.79,6.75-.13,13.5-.03,20.94-.03,0-2.36,0-4.29,0-6.23,0-76-.01-151.99,0-227.99,0-16.56,6.18-29.9,21.63-37.18,5.37-2.53,11.82-3.78,17.79-3.84,35.45-.35,70.91-.17,106.36-.17,1.68,0,3.36,0,5.75,0,0-7.53-.39-14.87.07-22.16,1.89-29.96,12.16-56.93,29.79-81.14,2.17-2.99,4.3-6.1,6.95-8.63,3.82-3.65,8.1-6.81,12.18-10.18,2.77,0,5.55,0,8.32,0ZM325.21,720.32c-.59,7.16.31,13.63,3.34,19.64,6.94,13.75,18.71,19.27,33.59,19.27,118.5,0,237.01,0,355.51-.03,3.99,0,8-.29,11.96-.79,17.49-2.19,30.77-20.25,27.76-37.94-.84-.04-1.73-.13-2.62-.13-53.94,0-107.87.02-161.8-.08-2.86,0-3.88,1.1-4.94,3.54-5.25,12.11-14.4,19.66-27.69,20.62-11.5.83-23.1.91-34.62.5-14.25-.51-24.97-7.31-30.75-20.6-1.45-3.34-3.12-4.07-6.44-4.06-52.86.1-105.71.07-158.57.07-1.5,0-3,0-4.72,0ZM542.69,324.56c-.54.41-.96.62-1.24.96-22.22,26.11-33.92,56.24-33.24,90.61.28,14.43,2.22,28.84,3.62,43.24,2.08,21.45,4.29,42.88,6.64,64.3.13,1.17,1.84,2.85,3.06,3.11,13.12,2.76,26.31,2.72,39.43.02,1.36-.28,3.22-2.07,3.43-3.38,1.24-7.9,2.04-15.86,3.03-23.8,2.58-20.61,5.09-41.23,7.79-61.82,2.55-19.41,2.39-38.62-2.69-57.7-5.56-20.87-15.47-39.31-29.82-55.53ZM493.99,469.83c-21.19,12.75-35.29,50.71-28.53,76.51,10.73-9.66,21.4-19.2,31.95-28.87.82-.75,1.26-2.43,1.14-3.6-1.43-14.55-2.99-29.08-4.57-44.04ZM590.48,470.64c-.29.45-.69.8-.74,1.19-1.78,14.18-3.58,28.35-5.15,42.55-.14,1.29.97,3.1,2.03,4.09,8.71,8.04,17.54,15.95,26.34,23.88,1.52,1.37,3.1,2.66,4.75,4.08,2.95-29.95-2.7-56.25-27.24-75.79Z"/>
  <path class="cls-2" d="M398.13,483.98v178.72h289.95v-178.45c-1.56-.09-3.19-.25-4.81-.26-10.33-.03-20.66.15-30.98-.09-7.65-.17-11.9-5.51-9.98-11.97,1.39-4.66,5.01-6.65,9.45-6.7,15.1-.16,30.21-.23,45.32.02,6.74.11,9.91,4.25,9.91,11.84.02,37.15,0,74.3,0,111.45,0,26.98,0,53.95,0,80.93,0,8.88-3.14,12.09-11.87,12.09-101.43.01-202.86.01-304.29,0-8.33,0-11.93-3.4-11.93-11.66-.04-64.28-.04-128.56,0-192.84,0-8.18,3.77-11.85,11.89-11.89,11.25-.05,22.51-.04,33.76.02,1.67,0,3.39.23,4.99.7,4.46,1.3,6.77,4.74,6.53,9.35-.23,4.42-3.15,8.01-7.75,8.29-7.68.46-15.39.34-23.09.44-2.28.03-4.56,0-7.1,0Z"/>
  <path class="cls-2" d="M555.15,595.65c0-8.78-.09-17.56.03-26.34.09-6.39,3.8-10.55,9.14-10.61,5.44-.06,9.43,4.4,9.45,10.91.06,17.56.06,35.11,0,52.67-.02,5.21-2.57,8.94-6.52,10.09-6.04,1.75-11.73-2.08-11.92-8.55-.28-9.38-.07-18.78-.07-28.18-.03,0-.06,0-.09,0Z"/>
  <path class="cls-2" d="M508.17,589.03c0-5.84-.04-11.68.01-17.52.06-6.45,3.53-10.39,9.11-10.46,5.63-.06,9.32,3.86,9.35,10.21.06,11.84.06,23.67,0,35.51-.03,6.37-3.69,10.27-9.34,10.22-5.6-.05-9.07-3.97-9.12-10.43-.05-5.84-.01-11.68-.01-17.52Z"/>
  <path class="cls-2" d="M744.6,673.68c.16,4.88-4.41,9.58-9.31,9.59-4.79,0-9.09-4.23-9.26-9.11-.17-4.95,3.78-9.16,8.79-9.35,5.23-.2,9.62,3.78,9.79,8.87Z"/>
  <path class="cls-2" d="M541.48,392.54c5.14.01,9.33,4.34,9.2,9.49-.13,4.89-4.39,9.08-9.24,9.07-5.04-.02-9.33-4.48-9.2-9.57.13-4.95,4.29-9,9.24-8.99Z"/>
</svg>