<?xml version="1.0" encoding="UTF-8"?>
<svg id="Camada_1" data-name="Camada 1" xmlns="http://www.w3.org/2000/svg" version="1.1" xmlns:xlink="http://www.w3.org/1999/xlink" viewBox="0 0 1080 1080">
  <defs>
    <style>
      .cls-1 {
        fill: #fff;
      }

      .cls-1, .cls-2 {
        opacity: .96;
        stroke-width: 0px;
      }

      .cls-2 {
        fill: url(#Gradiente_sem_nome_53);
      }
    </style>
    <linearGradient id="Gradiente_sem_nome_53" data-name="Gradiente sem nome 53" x1="38.97" y1="541.39" x2="1043.03" y2="541.39" gradientUnits="userSpaceOnUse">
      <stop offset=".05" stop-color="#eb9451"/>
      <stop offset=".94" stop-color="#a5396b"/>
      <stop offset="1" stop-color="#a1336d"/>
    </linearGradient>
  </defs>
  <circle class="cls-2" cx="541" cy="541.39" r="502.03"/>
  <g>
    <path class="cls-1" d="M750.23,325.02c-6.83,0-12.9.05-18.97-.02-5.48-.06-8.73-3.08-8.73-7.92,0-4.85,3.24-7.88,8.73-7.91,12.73-.06,25.46-.06,38.19,0,5.65.03,8.55,2.91,8.58,8.54.07,12.9.08,25.79,0,38.69-.03,5.08-3.21,8.26-7.86,8.29-4.66.02-7.85-3.16-7.94-8.21-.11-6.24-.03-12.48-.03-19.66-1.68,1.49-2.77,2.36-3.75,3.33-9.36,9.34-18.8,18.61-28.01,28.1-3.12,3.22-6.44,4.85-10.95,4.43-3.11-.29-6.28.06-9.42-.08-7.07-.3-12.87-.31-17.58,7.55-5.03,8.38-14.69,10.14-24.29,7.32-2.79-.82-4.41-.39-6.4,1.61-19.22,19.36-38.51,38.65-57.86,57.87-1.85,1.84-2.36,3.32-1.56,5.95,3.67,12.15-2.01,24.19-13.38,29.03-11.55,4.92-24.24.46-30.42-10.96-1.31-2.41-2.69-3.17-5.34-3.16-22.15.1-44.3,0-66.46.19-1.64.01-3.93,1.43-4.78,2.86-6.09,10.25-15.38,14.43-27.27,12.32-1.82-.32-3.95,1.07-5.94,1.67.13.52.26,1.05.39,1.57,26.78,6.72,53.56,13.48,80.37,20.08,2.14.53,4.63.32,6.82-.17,43.27-9.59,86.51-19.27,130.32-29.06-.38-7.05,4.74-8.86,10.39-10.71,29.26-9.62,58.43-19.49,87.64-29.24,9.08-3.03,13.31,0,13.31,9.44,0,56.22,0,112.43,0,168.65,0,7.07-1.24,8.8-8.02,11.16-12.91,4.5-25.82,8.98-38.74,13.46-12.36,4.29-13.56,3.77-18.47-8.4-2.74,2.56-5.4,4.99-8,7.47-19.25,18.38-38.53,36.73-57.66,55.24-1.57,1.52-2.65,4.04-2.99,6.24-1.58,10.23-7.2,17.13-16.51,21.05,1.18,24.61-9.54,35.36-31.89,32.18-9.57,14.92-17.04,18.66-31.86,15.73-.57.98-1.24,2.04-1.82,3.15-7.78,14.79-26.05,18.66-38.65,7.67-9.96-8.68-19.29-18.08-28.86-27.21-41.14-39.26-82.26-78.55-123.4-117.81-1.29-1.23-2.65-2.38-4.06-3.64-4.95,12.04-6.32,12.61-18.45,8.34-13.06-4.59-26.14-9.09-39.21-13.65-6.16-2.15-7.55-4.08-7.55-10.5,0-56.55,0-113.09,0-169.64,0-8.8,4.33-11.89,12.83-9.06,30.17,10.02,60.3,20.13,90.48,30.1,4.92,1.62,8.16,4.23,7.87,10.03,3.1.83,6.26,1.27,9.07,2.5,6.48,2.85,10.98,1.09,14.87-4.68,1.75-2.59,2.27-4.29,1.12-7.37-4.29-11.49,1.32-24.41,12.36-29.54,11.31-5.26,24.76-1.07,30.8,9.95,1.56,2.85,3.1,3.93,6.4,3.9,21.65-.17,43.31-.14,64.97-.03,2.95.01,4.64-.65,6.15-3.5,5.48-10.3,16.56-14.77,27.78-11.38,2.56.78,4.09.45,5.98-1.46,19.33-19.48,38.79-38.83,58.08-58.36,1.14-1.15,1.77-3.76,1.35-5.34-3.33-12.56,2.19-24.66,13.74-29.45,11.59-4.8,23.9-.18,30.52,11.16.84,1.44,3.13,2.04,4.76,3.01.12.07.33-.01.49.01,12.47,2.13,22.08-1.94,29.91-12.11,5.1-6.63,11.75-12.06,17.7-18.03.22-.23.36-.54,1.08-1.62ZM408.51,492.92c-.59,1.79-1.09,3.17-1.51,4.57-11.19,37.23-22.3,74.48-33.68,111.65-1.25,4.09.04,6.19,2.8,8.81,35.82,34.04,71.54,68.19,107.29,102.32,16.14,15.41,32.29,30.81,48.41,46.23,2.86,2.74,5.92,4.9,10.14,3.73,7.2-1.99,8.78-10.25,2.97-16.09-21.11-21.2-42.28-42.34-63.43-63.5-1.17-1.17-2.47-2.25-3.4-3.6-2.47-3.58-2.36-7.24.69-10.36,3.06-3.14,6.74-3.27,10.35-.9,1.36.89,2.44,2.21,3.61,3.38,23.61,23.61,47.15,47.29,70.94,70.72,2.32,2.28,6.27,4.23,9.32,4.03,2.44-.15,5.38-3.4,6.8-5.99,2.02-3.67-.37-6.91-3.07-9.61-21.5-21.51-43.01-43.02-64.5-64.54-4.68-4.69-5.3-9.31-1.81-12.94,3.6-3.76,8.42-3.16,13.3,1.7,7.61,7.58,15.2,15.19,22.8,22.79,16.36,16.37,32.61,32.84,49.21,48.97,2.29,2.22,6.32,3.85,9.41,3.66,2.29-.14,5.05-3.32,6.39-5.8,2-3.7-.29-6.94-2.99-9.64-18.34-18.36-36.69-36.71-55.04-55.06-6.31-6.31-12.7-12.55-18.9-18.97-3.49-3.61-3.46-8.3-.3-11.52,3.15-3.21,7.81-3.2,11.54.09.99.87,1.88,1.86,2.81,2.79,21.15,21.16,42.29,42.33,63.48,63.45,4.42,4.4,9.36,4.7,13.17,1.07,3.81-3.63,3.77-8.9-.49-13.18-32.45-32.53-64.94-65.03-97.54-97.41-.98-.97-3.63-1.31-4.94-.72-7.05,3.2-13.85,6.96-20.89,10.2-11.7,5.38-24.95,1.73-32.07-8.56-7.43-10.73-6.06-23.99,3.54-33.29,13.17-12.77,26.4-25.48,39.59-38.23.99-.96,1.87-2.03,3.17-3.45-36.13-9.03-71.55-17.88-107.19-26.79ZM671.55,492.78c-44.66,9.94-88.87,19.77-133.06,29.66-1.36.31-2.85.96-3.84,1.91-16.97,16.22-33.87,32.51-50.79,48.78-2.95,2.83-3.56,6.27-2.39,10.01,1.89,6.06,8.3,8.03,15.16,4.61,25.84-12.87,51.65-25.81,77.47-38.7,6.01-3,10.4-2.05,12.71,2.66,2.28,4.65.38,8.69-5.65,11.73-12.22,6.17-24.47,12.28-36.7,18.44-1.22.61-2.37,1.37-3.25,1.89,32.46,32.46,64.58,64.6,96.84,96.86,22.48-21.45,45.23-43.09,67.83-64.89,1.02-.99,1.31-3.56.89-5.1-2.85-10.32-5.97-20.56-9.05-30.82-8.66-28.86-17.34-57.71-26.15-87.04ZM684.87,481.03c14.39,47.98,28.62,95.39,42.95,143.17,11.18-3.9,21.82-7.61,32.57-11.37-13.08-48.41-25.99-96.15-38.92-144.03-12.51,4.18-24.36,8.14-36.59,12.22ZM358.5,468.79c-13.01,48.18-25.92,95.95-38.91,144.06,11.03,3.83,21.66,7.51,32.59,11.3,14.41-48.04,28.62-95.44,42.92-143.13-12.17-4.07-24.02-8.03-36.6-12.24ZM318.11,455.36v99.17c3.38-10.57,6.26-21.18,9.12-31.8,4.93-18.27,9.84-36.55,14.76-54.82.53-1.98,1.9-4.06-1.47-5.12-7.36-2.32-14.65-4.85-22.41-7.44ZM761.37,554.55c.16,0,.32-.01.47-.02v-99.16c-7.78,2.59-15.14,4.91-22.36,7.62-.98.37-2.04,2.86-1.74,4.01,7.77,29.22,15.71,58.38,23.62,87.56Z"/>
    <path class="cls-1" d="M524.44,420.26c-35.12.08-63.75-28.11-63.8-62.81-.05-35.63,27.88-64.12,62.91-64.17,35.54-.05,63.98,27.94,64.04,63.03.06,35.49-27.96,63.87-63.16,63.95ZM523.9,404.37c26.1.04,47.71-21.43,47.8-47.52.09-25.78-21.37-47.51-47.12-47.7-26.2-.19-48.02,21.5-48.06,47.78-.04,25.68,21.65,47.4,47.38,47.44Z"/>
    <path class="cls-1" d="M515.71,362.06c9.34-9.46,17.53-17.84,25.84-26.11,3.96-3.93,8.94-4.02,12.22-.5,2.91,3.13,3.02,7.81-.27,11.16-10.41,10.61-20.91,21.14-31.53,31.54-3.7,3.63-8.03,3.43-11.88-.27-5.12-4.92-10.14-9.95-15.06-15.07-3.5-3.64-3.61-8.27-.56-11.52,3.18-3.39,8.02-3.35,11.89.18,1.71,1.56,3.36,3.18,4.9,4.91,1.42,1.59,2.65,3.36,4.45,5.67Z"/>
  </g>
</svg>